<svg version="1.1"
      xmlns="http://www.w3.org/2000/svg"
      xmlns:xlink="http://www.w3.org/1999/xlink"  id="snapshot-59610" width="250" height="250" viewBox="0 0 250 250"><desc>This image was made on Patterninja.com</desc><defs>
<!-- image 20301 -->
<g id="transformed-20301" data-image="20301" transform="translate(-125, -125) rotate(0, 125, 125)"><g><svg version="1.1" width="250px" height="250px" viewBox="0 0 250 250"><g id="original-20301"><svg xmlns="http://www.w3.org/2000/svg" viewBox="0 0 400 400" xmlns:xlink="http://www.w3.org/1999/xlink" version="1.1" preserveAspectRatio="xMidYMid meet">
  <path d="M144.4 162.4c1.2 0 2.4-.4 3.3-1.3 2.1-1.8 2.2-5 .4-7.1-3-3.4-2.7-8.5.6-11.6 3.4-3 8.5-2.7 11.6.6 1.8 2.1 5 2.2 7.1.4 2.1-1.8 2.2-5 .4-7.1-6.7-7.5-18.2-8.1-25.7-1.4-3.6 3.2-5.7 7.7-6 12.6-.3 4.8 1.4 9.5 4.6 13.1 1 1.2 2.3 1.8 3.7 1.8z" fill="rgba(221, 221, 221, 1)" stroke="none"/>
  <path d="M250.3 228c-2 1.9-2.1 5.1-.2 7.1 3.1 3.3 2.9 8.5-.4 11.6-3.3 3.1-8.5 2.9-11.6-.4-1.9-2-5.1-2.1-7.1-.2-2 1.9-2.1 5.1-.2 7.1 3.6 3.8 8.4 5.8 13.3 5.8 4.5 0 8.9-1.6 12.4-4.9 7.3-6.8 7.7-18.4.9-25.7-1.9-2.2-5.1-2.3-7.1-.4z" fill="rgba(221, 221, 221, 1)" stroke="none"/>
  <path d="M239.6 145.7c3.4-3 8.5-2.7 11.6.6 1.5 1.6 2.2 3.7 2.1 5.9-.1 2.2-1.1 4.2-2.7 5.6-2.1 1.8-2.2 5-.4 7.1 1 1.1 2.4 1.7 3.7 1.7 1.2 0 2.4-.4 3.3-1.3 3.6-3.2 5.7-7.7 6-12.6.3-4.8-1.4-9.5-4.6-13.1-6.7-7.5-18.2-8.1-25.7-1.4-2.1 1.8-2.2 5-.4 7.1 1.9 2 5.1 2.2 7.1.4z" fill="rgba(221, 221, 221, 1)" stroke="none"/>
  <path d="M165.7 247.8c-1.9-2-5.1-2.1-7.1-.2-1.6 1.5-3.7 2.3-5.9 2.2-2.2-.1-4.2-1-5.7-2.6s-2.3-3.7-2.2-5.9c.1-2.2 1-4.2 2.6-5.7 2-1.9 2.1-5.1.2-7.1-1.9-2-5.1-2.1-7.1-.2-3.5 3.3-5.6 7.8-5.8 12.7-.2 4.9 1.6 9.5 4.9 13 3.3 3.5 7.8 5.6 12.7 5.8h.6c4.6 0 9-1.7 12.4-4.9 2.2-1.9 2.3-5.1.4-7.1z" fill="rgba(221, 221, 221, 1)" stroke="none"/>
  <circle cx="238.9" cy="110.1" r="5.1" fill="rgba(221, 221, 221, 1)" stroke="none"/>
  <circle cx="290.1" cy="162.7" r="5.1" fill="rgba(221, 221, 221, 1)" stroke="none"/>
  <circle cx="290.1" cy="237.5" r="5.1" fill="rgba(221, 221, 221, 1)" stroke="none"/>
  <circle cx="238.9" cy="288.4" r="5.1" fill="rgba(221, 221, 221, 1)" stroke="none"/>
  <circle cx="165.7" cy="288.4" r="5.1" fill="rgba(221, 221, 221, 1)" stroke="none"/>
  <circle cx="109.7" cy="233.5" r="5.1" fill="rgba(221, 221, 221, 1)" stroke="none"/>
  <circle cx="109.7" cy="157.6" r="5.1" fill="rgba(221, 221, 221, 1)" stroke="none"/>
  <circle cx="162" cy="109.1" r="5.1" fill="rgba(221, 221, 221, 1)" stroke="none"/>
  <path d="M196.5 165.7c.1.1.3.3.5.4.1.1.2.2.3.2.2.1.4.2.5.3.1.1.2.1.3.2.2.1.4.1.6.2.1 0 .2.1.3.1.3.1.6.1 1 .1.3 0 .6 0 1-.1.1 0 .2-.1.3-.1.2-.1.4-.1.6-.2.1-.1.3-.1.4-.2.2-.1.3-.2.5-.3.1-.1.2-.2.4-.3.1-.1.3-.2.4-.3l16.6-16.5c2-1.9 2-5.1 0-7.1-1.9-2-5.1-2-7.1 0l-13.1 13-14-13.9c-2-1.9-5.1-1.9-7.1 0-1.9 2-1.9 5.1 0 7.1l17.6 17.4z" fill="rgba(221, 221, 221, 1)" stroke="none"/>
  <path d="M196.5 139.2c.1.1.3.3.5.4.1.1.2.2.3.2.2.1.4.2.5.3.1.1.2.1.3.2.2.1.4.1.6.2.1 0 .2.1.3.1.3.1.6.1 1 .1.3 0 .6 0 1-.1.1 0 .2-.1.3-.1.2-.1.4-.1.6-.2.1-.1.3-.1.4-.2.2-.1.3-.2.5-.3.1-.1.2-.2.4-.3.1-.1.3-.2.4-.3l16.6-16.5c2-1.9 2-5.1 0-7.1-1.9-2-5.1-2-7.1 0l-13.1 13-14-13.9c-2-1.9-5.1-1.9-7.1 0-1.9 2-1.9 5.1 0 7.1l17.6 17.4z" fill="rgba(221, 221, 221, 1)" stroke="none"/>
  <path d="M230.2 201.2l18.4 18.3c1 1 2.3 1.5 3.5 1.5 1.3 0 2.6-.5 3.5-1.5 1.9-2 1.9-5.1 0-7.1l-15-14.9 15-14.9c2-1.9 2-5.1 0-7.1-1.9-2-5.1-2-7.1 0l-18.4 18.3c-1 1-1.5 2.3-1.5 3.7.1 1.4.6 2.7 1.6 3.7z" fill="rgba(221, 221, 221, 1)" stroke="none"/>
  <path d="M202.6 228.3c-.1-.1-.3-.2-.4-.3-.1-.1-.2-.2-.4-.3-.1-.1-.3-.2-.4-.2-.1-.1-.3-.2-.4-.2-.1-.1-.3-.1-.4-.1-.2-.1-.3-.1-.5-.1h-.4c-.2 0-.4-.1-.5-.1h-.4c-.2 0-.4 0-.6.1-.1 0-.3.1-.4.1-.2.1-.4.1-.5.2-.1.1-.2.1-.4.2s-.3.2-.5.3l-.3.3c-.1.1-.3.2-.4.4l-17.6 17.6c-2 1.9-2 5.1 0 7.1 1 1 2.3 1.5 3.5 1.5 1.3 0 2.6-.5 3.5-1.5l14.1-14 14.1 14c1 1 2.3 1.5 3.5 1.5 1.3 0 2.6-.5 3.5-1.5 1.9-2 1.9-5.1 0-7.1l-17.7-17.9z" fill="rgba(221, 221, 221, 1)" stroke="none"/>
  <path d="M168 192.9l-17.4-17.3c-2-1.9-5.1-1.9-7.1 0-1.9 2-1.9 5.1 0 7.1l14 13.9-15 14.9c-2 1.9-2 5.1 0 7.1 1 1 2.3 1.5 3.5 1.5 1.3 0 2.6-.5 3.5-1.5l18.4-18.3c1-1 1.5-2.3 1.5-3.7.1-1.3-.3-2.7-1.4-3.7z" fill="rgba(221, 221, 221, 1)" stroke="none"/>
  <path d="M144.7 196.6c0-1.3-.5-2.7-1.5-3.7l-17.4-17.3c-2-1.9-5.1-1.9-7.1 0-1.9 2-1.9 5.1 0 7.1l14 13.9-15 14.9c-2 1.9-2 5.1 0 7.1 1 1 2.3 1.5 3.5 1.5 1.3 0 2.6-.5 3.5-1.5l18.4-18.3c1.2-1.1 1.7-2.4 1.6-3.7z" fill="rgba(221, 221, 221, 1)" stroke="none"/>
  <path d="M202.6 253.4c-.1-.1-.3-.2-.4-.3-.1-.1-.2-.2-.4-.3-.1-.1-.3-.1-.4-.2-.2-.1-.3-.2-.5-.3-.1 0-.3-.1-.4-.1-.2-.1-.4-.1-.5-.2h-.4c-.2 0-.4-.1-.6-.1h-.4c-.2 0-.4 0-.5.1-.1 0-.3.1-.4.1-.2 0-.3.1-.5.1-.1.1-.3.1-.4.2-.2.1-.3.1-.5.2-.1.1-.2.2-.4.3-.1.1-.3.2-.4.3L177.9 271c-2 1.9-2 5.1 0 7.1 1 1 2.3 1.5 3.5 1.5 1.3 0 2.6-.5 3.5-1.5l14.1-14 14.1 14c1 1 2.3 1.5 3.5 1.5 1.3 0 2.6-.5 3.5-1.5 1.9-2 1.9-5.1 0-7.1l-17.5-17.6z" fill="rgba(221, 221, 221, 1)" stroke="none"/>
  <path d="M282.3 175.6c-1.9-2-5.1-2-7.1 0l-18.4 18.3c-1 1-1.5 2.3-1.5 3.7 0 1.3.4 2.7 1.5 3.7l18.4 18.3c1 1 2.3 1.5 3.5 1.5 1.3 0 2.6-.5 3.5-1.5 1.9-2 1.9-5.1 0-7.1l-15-14.9 15-14.9c2-2 2-5.1.1-7.1z" fill="rgba(221, 221, 221, 1)" stroke="none"/>
  <path d="M202.7 174.1c-.9-.9-2.2-1.5-3.5-1.5-1.3 0-2.6.5-3.5 1.5L176.8 193c-2 2-2 5.1 0 7.1l18.9 18.9c1 1 2.3 1.5 3.5 1.5 1.3 0 2.6-.5 3.5-1.5l18.9-18.9c.9-.9 1.5-2.2 1.5-3.5s-.5-2.6-1.5-3.5l-18.9-19zm-3.5 34.2l-11.8-11.8 11.8-11.8 11.8 11.8-11.8 11.8z" fill="rgba(221, 221, 221, 1)" stroke="none"/>
</svg>
</g></svg></g></g>
<!-- /image 20301 -->
</defs><rect x="0" y="0" width="250" height="250" fill="rgba(51, 51, 51, 1)"></rect><use xlink:href="#transformed-20301" transform="translate(-250, -250)"></use><use xlink:href="#transformed-20301" transform="translate(0, -250)"></use><use xlink:href="#transformed-20301" transform="translate(250, -250)"></use><use xlink:href="#transformed-20301" transform="translate(-250, 0)"></use><use xlink:href="#transformed-20301" transform="translate(0, 0)"></use><use xlink:href="#transformed-20301" transform="translate(250, 0)"></use><use xlink:href="#transformed-20301" transform="translate(-250, 250)"></use><use xlink:href="#transformed-20301" transform="translate(0, 250)"></use><use xlink:href="#transformed-20301" transform="translate(250, 250)"></use></svg>